<svg xmlns="http://www.w3.org/2000/svg" viewBox="0 0 300 200">
  <!-- Server/Database Symbol -->
  <g transform="translate(30, 30)">
    <rect x="0" y="0" width="75" height="115" fill="#1a1a1a" stroke="#262626" stroke-width="1.5" rx="8"/>
    <line x1="0" y1="29" x2="75" y2="29" stroke="#262626" stroke-width="1.5"/>
    <line x1="0" y1="58" x2="75" y2="58" stroke="#262626" stroke-width="1.5"/>

    <!-- Server indicators -->
    <circle cx="15" cy="15" r="3" fill="#ff2c6b" opacity="0.8"/>
    <circle cx="25" cy="15" r="3" fill="#404040"/>
    <circle cx="35" cy="15" r="3" fill="#404040"/>
  </g>

  <!-- Central Deployment Pipeline -->
  <g transform="translate(120, 37)">
    <rect x="0" y="0" width="85" height="100" fill="#141414" stroke="#262626" stroke-width="1.5" rx="8"/>
    <line x1="10" y1="30" x2="75" y2="30" stroke="#ff2c6b" stroke-width="2.5"/>
    <line x1="10" y1="60" x2="75" y2="60" stroke="#ff2c6b" stroke-width="2.5" opacity="0.5"/>

    <!-- Circular Progress Indicators -->
    <circle cx="25" cy="85" r="6" fill="#ff2c6b" opacity="0.3"/>
    <circle cx="25" cy="85" r="4" fill="#ff2c6b"/>

    <circle cx="45" cy="85" r="6" fill="#ff2c6b" opacity="0.3"/>
    <circle cx="45" cy="85" r="4" fill="#ff2c6b"/>

    <circle cx="65" cy="85" r="6" fill="#ff2c6b" opacity="0.3"/>
    <circle cx="65" cy="85" r="4" fill="#ff2c6b"/>
  </g>

  <!-- Monitoring Graph -->
  <g transform="translate(220, 30)">
    <rect x="0" y="0" width="75" height="115" fill="#1a1a1a" stroke="#262626" stroke-width="1.5" rx="8"/>
    <!-- Simplified Graph Line -->
    <path d="M10 85 L30 55 L45 70 L65 40" stroke="#ff2c6b" stroke-width="2.5" fill="none"/>
    <circle cx="65" cy="40" r="6" fill="#ff2c6b" opacity="0.3"/>
    <circle cx="65" cy="40" r="4" fill="#ff2c6b"/>

    <!-- Graph indicators -->
    <circle cx="15" cy="15" r="3" fill="#ff2c6b"/>
  </g>

  <!-- Connecting Lines -->
  <path d="M105 87 L120 89" stroke="#ff2c6b" stroke-width="2" opacity="0.5"/>
  <path d="M205 89 L220 87" stroke="#ff2c6b" stroke-width="2" opacity="0.5"/>

  <!-- Status Indicators -->
  <circle cx="65" cy="20" r="8" fill="#ff2c6b" opacity="0.2"/>
  <circle cx="65" cy="20" r="5" fill="#ff2c6b"/>

  <circle cx="255" cy="20" r="8" fill="#ff2c6b" opacity="0.2"/>
  <circle cx="255" cy="20" r="5" fill="#ff2c6b"/>
</svg>
