<svg xmlns="http://www.w3.org/2000/svg" viewBox="-120 -120 240 240">
  <!-- Curved Outer Pattern -->
  <path d="M 80,0 A 80,80 0 1,1 -40,-69.28 A 20,20 0 0,1 -20,-34.64 A 40,40 0 1,0 40,0" 
        fill="none" 
        stroke="#2D3748" 
        stroke-width="3"
        stroke-linecap="round"/>
  
  <!-- Pulse Circles -->
  <circle cx="0" cy="0" r="65" fill="none" stroke="#4A5568" stroke-width="0.5" stroke-dasharray="2,3"/>
  <circle cx="0" cy="0" r="55" fill="none" stroke="#4A5568" stroke-width="0.5" stroke-dasharray="2,3"/>
  <circle cx="0" cy="0" r="45" fill="none" stroke="#4A5568" stroke-width="0.5" stroke-dasharray="2,3"/>
  
  <!-- Hexagonal Core -->
  <path d="M 0,-40 L 34.64,-20 L 34.64,20 L 0,40 L -34.64,20 L -34.64,-20 Z" 
        fill="none" 
        stroke="#2D3748" 
        stroke-width="2"/>
  
  <!-- Network Nodes (vertices) -->
  <circle cx="0" cy="-40" r="4" fill="#4299E1"/>
  <circle cx="34.64" cy="-20" r="4" fill="#4299E1"/>
  <circle cx="34.64" cy="20" r="4" fill="#4299E1"/>
  <circle cx="0" cy="40" r="4" fill="#4299E1"/>
  <circle cx="-34.64" cy="20" r="4" fill="#4299E1"/>
  <circle cx="-34.64" cy="-20" r="4" fill="#4299E1"/>
  
  <!-- Dashed Connection Lines -->
  <line x1="0" y1="-40" x2="34.64" y2="-20" stroke="#718096" stroke-width="1" stroke-dasharray="3,3"/>
  <line x1="34.64" y1="-20" x2="34.64" y2="20" stroke="#718096" stroke-width="1" stroke-dasharray="3,3"/>
  <line x1="34.64" y1="20" x2="0" y2="40" stroke="#718096" stroke-width="1" stroke-dasharray="3,3"/>
  <line x1="0" y1="40" x2="-34.64" y2="20" stroke="#718096" stroke-width="1" stroke-dasharray="3,3"/>
  <line x1="-34.64" y1="20" x2="-34.64" y2="-20" stroke="#718096" stroke-width="1" stroke-dasharray="3,3"/>
  <line x1="-34.64" y1="-20" x2="0" y2="-40" stroke="#718096" stroke-width="1" stroke-dasharray="3,3"/>
  
  <!-- Cross Connections -->
  <line x1="0" y1="-40" x2="0" y2="40" stroke="#718096" stroke-width="1" stroke-dasharray="3,3" opacity="0.5"/>
  <line x1="-34.64" y1="-20" x2="34.64" y2="20" stroke="#718096" stroke-width="1" stroke-dasharray="3,3" opacity="0.5"/>
  <line x1="-34.64" y1="20" x2="34.64" y2="-20" stroke="#718096" stroke-width="1" stroke-dasharray="3,3" opacity="0.5"/>
</svg>