<svg xmlns="http://www.w3.org/2000/svg" viewBox="0 0 200 150">
  <!-- Person icon -->
  <circle cx="70" cy="50" r="15" fill="#a78bfa" fill-opacity="0.1"/>
  <circle cx="70" cy="45" r="8" fill="none" stroke="#a78bfa" stroke-width="1.5"/>
  <path d="M60 65 Q70 75 80 65" fill="none" stroke="#a78bfa" stroke-width="1.5"/>
  <!-- Tools -->
  <g transform="translate(100, 45) rotate(45)">
    <rect x="-5" y="-15" width="10" height="30" fill="#e5e7eb"/>
    <rect x="-8" y="-20" width="16" height="10" rx="2" fill="#e5e7eb"/>
  </g>
  <!-- Star ratings -->
  <g transform="translate(60, 90)">
    <path d="M10,0 L13,6 L20,7 L15,12 L16,19 L10,16 L4,19 L5,12 L0,7 L7,6 Z" fill="#a78bfa"/>
    <path d="M30,0 L33,6 L40,7 L35,12 L36,19 L30,16 L24,19 L25,12 L20,7 L27,6 Z" fill="#a78bfa"/>
    <path d="M50,0 L53,6 L60,7 L55,12 L56,19 L50,16 L44,19 L45,12 L40,7 L47,6 Z" fill="#a78bfa"/>
  </g>
</svg>
